<svg xmlns="http://www.w3.org/2000/svg" width="1920" height="1080" viewBox="0 0 1920 1080" fill="none">
  <defs>
    <linearGradient id="bgGrad" x1="0" y1="0" x2="1920" y2="1080" gradientUnits="userSpaceOnUse">
      <stop offset="0%" stop-color="#ecfdf5"/>
      <stop offset="45%" stop-color="#f0fdfa"/>
      <stop offset="100%" stop-color="#e0f2fe"/>
    </linearGradient>
    <radialGradient id="glowA" cx="0" cy="0" r="1" gradientUnits="userSpaceOnUse" gradientTransform="translate(320 180) rotate(90) scale(420)">
      <stop stop-color="#34d399" stop-opacity="0.35"/>
      <stop offset="1" stop-color="#34d399" stop-opacity="0"/>
    </radialGradient>
    <radialGradient id="glowB" cx="0" cy="0" r="1" gradientUnits="userSpaceOnUse" gradientTransform="translate(1580 820) rotate(90) scale(520)">
      <stop stop-color="#14b8a6" stop-opacity="0.28"/>
      <stop offset="1" stop-color="#14b8a6" stop-opacity="0"/>
    </radialGradient>
    <radialGradient id="glowC" cx="0" cy="0" r="1" gradientUnits="userSpaceOnUse" gradientTransform="translate(960 540) rotate(90) scale(380)">
      <stop stop-color="#059669" stop-opacity="0.12"/>
      <stop offset="1" stop-color="#059669" stop-opacity="0"/>
    </radialGradient>
    <pattern id="grid" width="48" height="48" patternUnits="userSpaceOnUse">
      <path d="M48 0H0V48" stroke="#059669" stroke-opacity="0.06" stroke-width="1"/>
    </pattern>
    <pattern id="dots" width="24" height="24" patternUnits="userSpaceOnUse">
      <circle cx="2" cy="2" r="1.2" fill="#0d9488" fill-opacity="0.12"/>
    </pattern>
  </defs>
  <rect width="1920" height="1080" fill="url(#bgGrad)"/>
  <rect width="1920" height="1080" fill="url(#grid)"/>
  <rect width="1920" height="1080" fill="url(#dots)"/>
  <rect width="1920" height="1080" fill="url(#glowA)"/>
  <rect width="1920" height="1080" fill="url(#glowB)"/>
  <rect width="1920" height="1080" fill="url(#glowC)"/>
  <g opacity="0.14" stroke="#047857" stroke-width="2">
    <path d="M120 900C280 760 360 620 520 520C680 420 860 380 1040 300C1220 220 1380 180 1560 120"/>
    <path d="M80 980C240 840 400 700 600 600C800 500 1000 420 1240 340C1480 260 1680 200 1860 140"/>
  </g>
  <g opacity="0.1" fill="#059669">
    <path d="M1680 220h72l36 62.4-36 62.4h-72l-36-62.4 36-62.4zm0 24l-24 41.6 24 41.6 24-41.6-24-41.6z"/>
    <path d="M180 760c0-33.1 26.9-60 60-60h40c33.1 0 60 26.9 60 60v8H180v-8zm20 28h120v72c0 11-9 20-20 20h-80c-11 0-20-9-20-20v-72z"/>
    <circle cx="1520" cy="680" r="48"/>
    <rect x="240" y="200" width="96" height="64" rx="12"/>
    <path d="M860 840l56-96h112l56 96H860zm56 20l-28 48h56l-28-48z"/>
  </g>
  <g opacity="0.08" stroke="#0f766e" stroke-width="1.5">
    <circle cx="420" cy="420" r="120"/>
    <circle cx="420" cy="420" r="80"/>
    <circle cx="1320" cy="360" r="100"/>
    <circle cx="1320" cy="360" r="64"/>
  </g>
</svg>
